STARTFONT 2.1
COMMENT
COMMENT Converted from OpenType font "Retro Gaming.ttf" by "otf2bdf 3.0".
COMMENT
FONT -FreeType-Retro Gaming-Medium-R-Normal--22-160-100-100-P-142-ISO10646-1
SIZE 16 100 100
FONTBOUNDINGBOX 29 28 -1 -6
STARTPROPERTIES 19
FOUNDRY "FreeType"
FAMILY_NAME "Retro Gaming"
WEIGHT_NAME "Medium"
SLANT "R"
SETWIDTH_NAME "Normal"
ADD_STYLE_NAME ""
PIXEL_SIZE 22
POINT_SIZE 160
RESOLUTION_X 100
RESOLUTION_Y 100
SPACING "P"
AVERAGE_WIDTH 142
CHARSET_REGISTRY "ISO10646"
CHARSET_ENCODING "1"
FONT_ASCENT 22
FONT_DESCENT 5
COPYRIGHT "Copyright © 2019 by Vasily Draigo aka Daymarius. All rights reserved."
_OTF_FONTFILE "Retro Gaming.ttf"
_OTF_PSNAME "RetroGaming"
ENDPROPERTIES
CHARS 316
STARTCHAR 0020
ENCODING 32
SWIDTH 360 0
DWIDTH 8 0
BBX 0 0 0 0
BITMAP
ENDCHAR
STARTCHAR 0021
ENCODING 33
SWIDTH 315 0
DWIDTH 7 0
BBX 4 16 2 0
BITMAP
F0
F0
F0
F0
F0
F0
F0
F0
F0
F0
00
00
F0
F0
F0
F0
ENDCHAR
STARTCHAR 0022
ENCODING 34
SWIDTH 585 0
DWIDTH 13 0
BBX 10 6 2 10
BITMAP
F3C0
F3C0
F3C0
F3C0
F3C0
F3C0
ENDCHAR
STARTCHAR 0023
ENCODING 35
SWIDTH 1035 0
DWIDTH 23 0
BBX 20 16 2 0
BITMAP
0F0F00
0F0F00
0F0F00
0F0F00
FFFFF0
FFFFF0
0F0F00
0F0F00
0F0F00
0F0F00
FFFFF0
FFFFF0
0F0F00
0F0F00
0F0F00
0F0F00
ENDCHAR
STARTCHAR 0024
ENCODING 36
SWIDTH 765 0
DWIDTH 17 0
BBX 14 24 2 -4
BITMAP
0780
0780
0780
0780
3FF0
3FF0
F33C
F33C
F300
F300
3FF0
3FF0
033C
033C
033C
033C
F33C
F33C
3FF0
3FF0
0780
0780
0780
0780
ENDCHAR
STARTCHAR 0025
ENCODING 37
SWIDTH 765 0
DWIDTH 17 0
BBX 14 16 2 0
BITMAP
3C3C
3C3C
CC3C
CC3C
F0F0
F0F0
03C0
03C0
0F00
0F00
3C3C
3C3C
F0CC
F0CC
F0F0
F0F0
ENDCHAR
STARTCHAR 0026
ENCODING 38
SWIDTH 855 0
DWIDTH 19 0
BBX 16 16 2 0
BITMAP
3FF0
3FF0
F03C
F03C
F000
F000
3F00
3F00
F07F
F07F
F078
F078
F078
F078
3FE0
3FE0
ENDCHAR
STARTCHAR 0027
ENCODING 39
SWIDTH 315 0
DWIDTH 7 0
BBX 4 6 2 10
BITMAP
F0
F0
F0
F0
F0
F0
ENDCHAR
STARTCHAR 0028
ENCODING 40
SWIDTH 495 0
DWIDTH 11 0
BBX 8 16 2 0
BITMAP
0F
0F
3C
3C
F0
F0
F0
F0
F0
F0
F0
F0
3C
3C
0F
0F
ENDCHAR
STARTCHAR 0029
ENCODING 41
SWIDTH 495 0
DWIDTH 11 0
BBX 8 16 2 0
BITMAP
F0
F0
3C
3C
0F
0F
0F
0F
0F
0F
0F
0F
3C
3C
F0
F0
ENDCHAR
STARTCHAR 002A
ENCODING 42
SWIDTH 855 0
DWIDTH 19 0
BBX 16 10 2 4
BITMAP
3E7C
3E7C
07E0
07E0
FFFF
FFFF
07E0
07E0
3E7C
3E7C
ENDCHAR
STARTCHAR 002B
ENCODING 43
SWIDTH 675 0
DWIDTH 15 0
BBX 12 10 2 3
BITMAP
0F00
0F00
0F00
0F00
FFF0
FFF0
0F00
0F00
0F00
0F00
ENDCHAR
STARTCHAR 002C
ENCODING 44
SWIDTH 315 0
DWIDTH 7 0
BBX 6 6 0 -2
BITMAP
3C
3C
3C
3C
F0
F0
ENDCHAR
STARTCHAR 002D
ENCODING 45
SWIDTH 495 0
DWIDTH 11 0
BBX 8 2 2 7
BITMAP
FF
FF
ENDCHAR
STARTCHAR 002E
ENCODING 46
SWIDTH 315 0
DWIDTH 7 0
BBX 4 4 2 0
BITMAP
F0
F0
F0
F0
ENDCHAR
STARTCHAR 002F
ENCODING 47
SWIDTH 765 0
DWIDTH 17 0
BBX 14 16 2 0
BITMAP
003C
003C
003C
003C
00F0
00F0
03C0
03C0
0F00
0F00
3C00
3C00
F000
F000
F000
F000
ENDCHAR
STARTCHAR 0030
ENCODING 48
SWIDTH 765 0
DWIDTH 17 0
BBX 14 16 2 0
BITMAP
3FF0
3FF0
F03C
F03C
F0FC
F0FC
F3FC
F3FC
FF3C
FF3C
FC3C
FC3C
F03C
F03C
3FF0
3FF0
ENDCHAR
STARTCHAR 0031
ENCODING 49
SWIDTH 495 0
DWIDTH 11 0
BBX 8 16 2 0
BITMAP
3C
3C
FC
FC
3C
3C
3C
3C
3C
3C
3C
3C
3C
3C
FF
FF
ENDCHAR
STARTCHAR 0032
ENCODING 50
SWIDTH 765 0
DWIDTH 17 0
BBX 14 16 2 0
BITMAP
3FF0
3FF0
F03C
F03C
003C
003C
3FF0
3FF0
F000
F000
F000
F000
F03C
F03C
FFFC
FFFC
ENDCHAR
STARTCHAR 0033
ENCODING 51
SWIDTH 765 0
DWIDTH 17 0
BBX 14 16 2 0
BITMAP
FFFC
FFFC
00F0
00F0
03C0
03C0
0FF0
0FF0
003C
003C
003C
003C
F03C
F03C
3FF0
3FF0
ENDCHAR
STARTCHAR 0034
ENCODING 52
SWIDTH 765 0
DWIDTH 17 0
BBX 14 16 2 0
BITMAP
03FC
03FC
0F3C
0F3C
3C3C
3C3C
F03C
F03C
FFFC
FFFC
003C
003C
003C
003C
003C
003C
ENDCHAR
STARTCHAR 0035
ENCODING 53
SWIDTH 765 0
DWIDTH 17 0
BBX 14 16 2 0
BITMAP
FFF0
FFF0
F000
F000
F000
F000
FFF0
FFF0
003C
003C
003C
003C
F03C
F03C
3FF0
3FF0
ENDCHAR
STARTCHAR 0036
ENCODING 54
SWIDTH 765 0
DWIDTH 17 0
BBX 14 16 2 0
BITMAP
3FF0
3FF0
F03C
F03C
F000
F000
FFF0
FFF0
F03C
F03C
F03C
F03C
F03C
F03C
3FF0
3FF0
ENDCHAR
STARTCHAR 0037
ENCODING 55
SWIDTH 765 0
DWIDTH 17 0
BBX 14 16 2 0
BITMAP
FFFC
FFFC
F03C
F03C
00F0
00F0
03C0
03C0
0F00
0F00
0F00
0F00
0F00
0F00
0F00
0F00
ENDCHAR
STARTCHAR 0038
ENCODING 56
SWIDTH 765 0
DWIDTH 17 0
BBX 14 16 2 0
BITMAP
3FF0
3FF0
F03C
F03C
F03C
F03C
3FF0
3FF0
F03C
F03C
F03C
F03C
F03C
F03C
3FF0
3FF0
ENDCHAR
STARTCHAR 0039
ENCODING 57
SWIDTH 765 0
DWIDTH 17 0
BBX 14 16 2 0
BITMAP
3FF0
3FF0
F03C
F03C
F03C
F03C
F03C
F03C
3FFC
3FFC
003C
003C
F03C
F03C
3FF0
3FF0
ENDCHAR
STARTCHAR 003A
ENCODING 58
SWIDTH 315 0
DWIDTH 7 0
BBX 4 12 2 0
BITMAP
F0
F0
F0
F0
00
00
00
00
F0
F0
F0
F0
ENDCHAR
STARTCHAR 003B
ENCODING 59
SWIDTH 315 0
DWIDTH 7 0
BBX 6 14 0 -2
BITMAP
3C
3C
3C
3C
00
00
00
00
3C
3C
3C
3C
F0
F0
ENDCHAR
STARTCHAR 003C
ENCODING 60
SWIDTH 585 0
DWIDTH 13 0
BBX 10 14 2 0
BITMAP
03C0
03C0
0F00
0F00
3C00
3C00
F000
F000
3C00
3C00
0F00
0F00
03C0
03C0
ENDCHAR
STARTCHAR 003D
ENCODING 61
SWIDTH 585 0
DWIDTH 13 0
BBX 10 6 2 4
BITMAP
FFC0
FFC0
0000
0000
FFC0
FFC0
ENDCHAR
STARTCHAR 003E
ENCODING 62
SWIDTH 585 0
DWIDTH 13 0
BBX 10 14 2 0
BITMAP
F000
F000
3C00
3C00
0F00
0F00
03C0
03C0
0F00
0F00
3C00
3C00
F000
F000
ENDCHAR
STARTCHAR 003F
ENCODING 63
SWIDTH 765 0
DWIDTH 17 0
BBX 14 16 2 0
BITMAP
3FF0
3FF0
F03C
F03C
003C
003C
03F0
03F0
0F00
0F00
0000
0000
0F00
0F00
0F00
0F00
ENDCHAR
STARTCHAR 0040
ENCODING 64
SWIDTH 765 0
DWIDTH 17 0
BBX 14 16 2 0
BITMAP
3FF0
3FF0
C00C
C00C
CFCC
CFCC
CCCC
CCCC
CCCC
CCCC
CFFC
CFFC
C000
C000
3FF0
3FF0
ENDCHAR
STARTCHAR 0041
ENCODING 65
SWIDTH 765 0
DWIDTH 17 0
BBX 14 16 2 0
BITMAP
0FC0
0FC0
3CF0
3CF0
F03C
F03C
F03C
F03C
FFFC
FFFC
F03C
F03C
F03C
F03C
F03C
F03C
ENDCHAR
STARTCHAR 0042
ENCODING 66
SWIDTH 765 0
DWIDTH 17 0
BBX 14 16 2 0
BITMAP
FFF0
FFF0
F03C
F03C
F03C
F03C
FFF0
FFF0
F03C
F03C
F03C
F03C
F03C
F03C
FFF0
FFF0
ENDCHAR
STARTCHAR 0043
ENCODING 67
SWIDTH 765 0
DWIDTH 17 0
BBX 14 16 2 0
BITMAP
0FF0
0FF0
3C3C
3C3C
F000
F000
F000
F000
F000
F000
F000
F000
3C3C
3C3C
0FF0
0FF0
ENDCHAR
STARTCHAR 0044
ENCODING 68
SWIDTH 765 0
DWIDTH 17 0
BBX 14 16 2 0
BITMAP
FFC0
FFC0
F0F0
F0F0
F03C
F03C
F03C
F03C
F03C
F03C
F03C
F03C
F0F0
F0F0
FFC0
FFC0
ENDCHAR
STARTCHAR 0045
ENCODING 69
SWIDTH 765 0
DWIDTH 17 0
BBX 14 16 2 0
BITMAP
FFFC
FFFC
F000
F000
F000
F000
FFC0
FFC0
F000
F000
F000
F000
F000
F000
FFFC
FFFC
ENDCHAR
STARTCHAR 0046
ENCODING 70
SWIDTH 765 0
DWIDTH 17 0
BBX 14 16 2 0
BITMAP
FFFC
FFFC
F000
F000
F000
F000
FFC0
FFC0
F000
F000
F000
F000
F000
F000
F000
F000
ENDCHAR
STARTCHAR 0047
ENCODING 71
SWIDTH 765 0
DWIDTH 17 0
BBX 14 16 2 0
BITMAP
0FF0
0FF0
3C3C
3C3C
F000
F000
F000
F3FC
F3FC
F03C
F03C
F03C
3C3C
3C3C
0FFC
0FFC
ENDCHAR
STARTCHAR 0048
ENCODING 72
SWIDTH 765 0
DWIDTH 17 0
BBX 14 16 2 0
BITMAP
F03C
F03C
F03C
F03C
F03C
F03C
FFFC
FFFC
F03C
F03C
F03C
F03C
F03C
F03C
F03C
F03C
ENDCHAR
STARTCHAR 0049
ENCODING 73
SWIDTH 675 0
DWIDTH 15 0
BBX 12 16 2 0
BITMAP
FFF0
FFF0
0F00
0F00
0F00
0F00
0F00
0F00
0F00
0F00
0F00
0F00
0F00
0F00
FFF0
FFF0
ENDCHAR
STARTCHAR 004A
ENCODING 74
SWIDTH 765 0
DWIDTH 17 0
BBX 14 16 2 0
BITMAP
0FFC
0FFC
003C
003C
003C
003C
003C
003C
003C
003C
F03C
F03C
F03C
F03C
3FF0
3FF0
ENDCHAR
STARTCHAR 004B
ENCODING 75
SWIDTH 765 0
DWIDTH 17 0
BBX 14 16 2 0
BITMAP
F03C
F03C
F0F0
F0F0
F3C0
F3C0
FF00
FF00
F3C0
F3C0
F0F0
F0F0
F03C
F03C
F03C
F03C
ENDCHAR
STARTCHAR 004C
ENCODING 76
SWIDTH 675 0
DWIDTH 15 0
BBX 12 16 2 0
BITMAP
F000
F000
F000
F000
F000
F000
F000
F000
F000
F000
F000
F000
F000
F000
FFF0
FFF0
ENDCHAR
STARTCHAR 004D
ENCODING 77
SWIDTH 765 0
DWIDTH 17 0
BBX 14 16 2 0
BITMAP
C00C
C00C
F03C
F03C
FCFC
FCFC
FFFC
FFFC
F33C
F33C
F03C
F03C
F03C
F03C
F03C
F03C
ENDCHAR
STARTCHAR 004E
ENCODING 78
SWIDTH 765 0
DWIDTH 17 0
BBX 14 16 2 0
BITMAP
C03C
C03C
F03C
F03C
FC3C
FC3C
FF3C
FF3C
F3FC
F3FC
F0FC
F0FC
F03C
F03C
F00C
F00C
ENDCHAR
STARTCHAR 004F
ENCODING 79
SWIDTH 765 0
DWIDTH 17 0
BBX 14 16 2 0
BITMAP
3FF0
3FF0
F03C
F03C
F03C
F03C
F03C
F03C
F03C
F03C
F03C
F03C
F03C
F03C
3FF0
3FF0
ENDCHAR
STARTCHAR 0050
ENCODING 80
SWIDTH 765 0
DWIDTH 17 0
BBX 14 16 2 0
BITMAP
FFF0
FFF0
F03C
F03C
F03C
F03C
FFF0
FFF0
F000
F000
F000
F000
F000
F000
F000
F000
ENDCHAR
STARTCHAR 0051
ENCODING 81
SWIDTH 765 0
DWIDTH 17 0
BBX 14 16 2 0
BITMAP
3FF0
3FF0
F03C
F03C
F03C
F03C
F03C
F03C
F03C
F03C
F3FC
F3FC
F0F0
F0F0
3FCC
3FCC
ENDCHAR
STARTCHAR 0052
ENCODING 82
SWIDTH 765 0
DWIDTH 17 0
BBX 14 16 2 0
BITMAP
FFF0
FFF0
F03C
F03C
F03C
F03C
FFF0
FFF0
F03C
F03C
F03C
F03C
F03C
F03C
F03C
F03C
ENDCHAR
STARTCHAR 0053
ENCODING 83
SWIDTH 765 0
DWIDTH 17 0
BBX 14 16 2 0
BITMAP
3FF0
3FF0
F03C
F03C
F000
F000
3FF0
3FF0
003C
003C
003C
003C
F03C
F03C
3FF0
3FF0
ENDCHAR
STARTCHAR 0054
ENCODING 84
SWIDTH 765 0
DWIDTH 17 0
BBX 14 16 2 0
BITMAP
FFFC
FFFC
0780
0780
0780
0780
0780
0780
0780
0780
0780
0780
0780
0780
0780
0780
ENDCHAR
STARTCHAR 0055
ENCODING 85
SWIDTH 765 0
DWIDTH 17 0
BBX 14 16 2 0
BITMAP
F03C
F03C
F03C
F03C
F03C
F03C
F03C
F03C
F03C
F03C
F03C
F03C
F03C
F03C
3FF0
3FF0
ENDCHAR
STARTCHAR 0056
ENCODING 86
SWIDTH 765 0
DWIDTH 17 0
BBX 14 16 2 0
BITMAP
F03C
F03C
F03C
F03C
F03C
F03C
F03C
F03C
F03C
F03C
3CF0
3CF0
0FC0
0FC0
0300
0300
ENDCHAR
STARTCHAR 0057
ENCODING 87
SWIDTH 855 0
DWIDTH 19 0
BBX 16 16 2 0
BITMAP
F18F
F18F
F18F
F18F
F18F
F18F
F18F
F18F
F18F
F18F
FFFF
FFFF
FC3F
FC3F
300C
300C
ENDCHAR
STARTCHAR 0058
ENCODING 88
SWIDTH 765 0
DWIDTH 17 0
BBX 14 16 2 0
BITMAP
F03C
F03C
F03C
F03C
3CF0
3CF0
0FC0
0FC0
3CF0
3CF0
F03C
F03C
F03C
F03C
F03C
F03C
ENDCHAR
STARTCHAR 0059
ENCODING 89
SWIDTH 765 0
DWIDTH 17 0
BBX 14 16 2 0
BITMAP
F03C
F03C
F03C
F03C
F03C
F03C
3CF0
3CF0
0FC0
0FC0
0780
0780
0780
0780
0780
0780
ENDCHAR
STARTCHAR 005A
ENCODING 90
SWIDTH 765 0
DWIDTH 17 0
BBX 14 16 2 0
BITMAP
FFFC
FFFC
003C
003C
00F0
00F0
03C0
03C0
0F00
0F00
3C00
3C00
F000
F000
FFFC
FFFC
ENDCHAR
STARTCHAR 005B
ENCODING 91
SWIDTH 495 0
DWIDTH 11 0
BBX 8 16 2 0
BITMAP
FF
FF
F0
F0
F0
F0
F0
F0
F0
F0
F0
F0
F0
F0
FF
FF
ENDCHAR
STARTCHAR 005C
ENCODING 92
SWIDTH 765 0
DWIDTH 17 0
BBX 14 16 2 0
BITMAP
F000
F000
F000
F000
3C00
3C00
0F00
0F00
03C0
03C0
00F0
00F0
003C
003C
003C
003C
ENDCHAR
STARTCHAR 005D
ENCODING 93
SWIDTH 495 0
DWIDTH 11 0
BBX 8 16 2 0
BITMAP
FF
FF
0F
0F
0F
0F
0F
0F
0F
0F
0F
0F
0F
0F
FF
FF
ENDCHAR
STARTCHAR 005E
ENCODING 94
SWIDTH 765 0
DWIDTH 17 0
BBX 14 6 2 10
BITMAP
0FC0
0FC0
3CF0
3CF0
F03C
F03C
ENDCHAR
STARTCHAR 005F
ENCODING 95
SWIDTH 585 0
DWIDTH 13 0
BBX 10 2 2 0
BITMAP
FFC0
FFC0
ENDCHAR
STARTCHAR 0060
ENCODING 96
SWIDTH 495 0
DWIDTH 11 0
BBX 8 6 2 10
BITMAP
F0
F0
3C
3C
0F
0F
ENDCHAR
STARTCHAR 0061
ENCODING 97
SWIDTH 765 0
DWIDTH 17 0
BBX 14 10 2 0
BITMAP
3FF0
3FF0
003C
003C
3FFC
3FFC
F03C
F03C
3FFC
3FFC
ENDCHAR
STARTCHAR 0062
ENCODING 98
SWIDTH 765 0
DWIDTH 17 0
BBX 14 16 2 0
BITMAP
F000
F000
F000
F000
F000
F000
FFF0
FFF0
F03C
F03C
F03C
F03C
F03C
F03C
FFF0
FFF0
ENDCHAR
STARTCHAR 0063
ENCODING 99
SWIDTH 765 0
DWIDTH 17 0
BBX 14 10 2 0
BITMAP
3FF0
3FF0
F03C
F03C
F000
F000
F03C
F03C
3FF0
3FF0
ENDCHAR
STARTCHAR 0064
ENCODING 100
SWIDTH 765 0
DWIDTH 17 0
BBX 14 16 2 0
BITMAP
003C
003C
003C
003C
003C
003C
3FFC
3FFC
F03C
F03C
F03C
F03C
F03C
F03C
3FFC
3FFC
ENDCHAR
STARTCHAR 0065
ENCODING 101
SWIDTH 765 0
DWIDTH 17 0
BBX 14 10 2 0
BITMAP
3FF0
3FF0
F03C
F03C
FFFC
FFFC
F000
F000
3FF0
3FF0
ENDCHAR
STARTCHAR 0066
ENCODING 102
SWIDTH 585 0
DWIDTH 13 0
BBX 10 16 2 0
BITMAP
0FC0
0FC0
3C00
3C00
3C00
3C00
FFC0
FFC0
3C00
3C00
3C00
3C00
3C00
3C00
3C00
3C00
ENDCHAR
STARTCHAR 0067
ENCODING 103
SWIDTH 765 0
DWIDTH 17 0
BBX 14 16 2 -6
BITMAP
3FFC
3FFC
F03C
F03C
F03C
F03C
F03C
F03C
3FFC
3FFC
003C
003C
003C
003C
3FF0
3FF0
ENDCHAR
STARTCHAR 0068
ENCODING 104
SWIDTH 765 0
DWIDTH 17 0
BBX 14 16 2 0
BITMAP
F000
F000
F000
F000
F000
F000
FFF0
FFF0
F03C
F03C
F03C
F03C
F03C
F03C
F03C
F03C
ENDCHAR
STARTCHAR 0069
ENCODING 105
SWIDTH 315 0
DWIDTH 7 0
BBX 4 16 2 0
BITMAP
F0
F0
F0
F0
00
00
F0
F0
F0
F0
F0
F0
F0
F0
F0
F0
ENDCHAR
STARTCHAR 006A
ENCODING 106
SWIDTH 585 0
DWIDTH 13 0
BBX 10 18 2 -2
BITMAP
03C0
03C0
03C0
03C0
0000
0000
03C0
03C0
03C0
03C0
03C0
03C0
03C0
03C0
F3C0
F3C0
3F00
3F00
ENDCHAR
STARTCHAR 006B
ENCODING 107
SWIDTH 675 0
DWIDTH 15 0
BBX 12 16 2 0
BITMAP
F000
F000
F000
F000
F000
F000
F0F0
F0F0
F3C0
F3C0
FF00
FF00
F3C0
F3C0
F0F0
F0F0
ENDCHAR
STARTCHAR 006C
ENCODING 108
SWIDTH 405 0
DWIDTH 9 0
BBX 6 16 2 0
BITMAP
F0
F0
F0
F0
F0
F0
F0
F0
F0
F0
F0
F0
F0
F0
3C
3C
ENDCHAR
STARTCHAR 006D
ENCODING 109
SWIDTH 765 0
DWIDTH 17 0
BBX 14 10 2 0
BITMAP
FFF0
FFF0
F33C
F33C
F33C
F33C
F33C
F33C
F33C
F33C
ENDCHAR
STARTCHAR 006E
ENCODING 110
SWIDTH 765 0
DWIDTH 17 0
BBX 14 10 2 0
BITMAP
FFF0
FFF0
F03C
F03C
F03C
F03C
F03C
F03C
F03C
F03C
ENDCHAR
STARTCHAR 006F
ENCODING 111
SWIDTH 765 0
DWIDTH 17 0
BBX 14 10 2 0
BITMAP
3FF0
3FF0
F03C
F03C
F03C
F03C
F03C
F03C
3FF0
3FF0
ENDCHAR
STARTCHAR 0070
ENCODING 112
SWIDTH 765 0
DWIDTH 17 0
BBX 14 16 2 -6
BITMAP
FFF0
FFF0
F03C
F03C
F03C
F03C
F03C
F03C
FFF0
FFF0
F000
F000
F000
F000
F000
F000
ENDCHAR
STARTCHAR 0071
ENCODING 113
SWIDTH 765 0
DWIDTH 17 0
BBX 14 16 2 -6
BITMAP
3FFC
3FFC
F03C
F03C
F03C
F03C
F03C
F03C
3FFC
3FFC
003C
003C
003C
003C
003C
003C
ENDCHAR
STARTCHAR 0072
ENCODING 114
SWIDTH 675 0
DWIDTH 15 0
BBX 12 10 2 0
BITMAP
F3F0
F3F0
FC00
FC00
F000
F000
F000
F000
F000
F000
ENDCHAR
STARTCHAR 0073
ENCODING 115
SWIDTH 765 0
DWIDTH 17 0
BBX 14 10 2 0
BITMAP
3FF0
3FF0
F000
F000
3FF0
3FF0
003C
003C
FFF0
FFF0
ENDCHAR
STARTCHAR 0074
ENCODING 116
SWIDTH 585 0
DWIDTH 13 0
BBX 10 16 2 0
BITMAP
3C00
3C00
3C00
3C00
3C00
3C00
FFC0
FFC0
3C00
3C00
3C00
3C00
3C00
3C00
0FC0
0FC0
ENDCHAR
STARTCHAR 0075
ENCODING 117
SWIDTH 765 0
DWIDTH 17 0
BBX 14 10 2 0
BITMAP
F03C
F03C
F03C
F03C
F03C
F03C
F03C
F03C
3FF0
3FF0
ENDCHAR
STARTCHAR 0076
ENCODING 118
SWIDTH 765 0
DWIDTH 17 0
BBX 14 10 2 0
BITMAP
F03C
F03C
F03C
F03C
F03C
F03C
3CF0
3CF0
0FC0
0FC0
ENDCHAR
STARTCHAR 0077
ENCODING 119
SWIDTH 765 0
DWIDTH 17 0
BBX 14 10 2 0
BITMAP
F33C
F33C
F33C
F33C
F33C
F33C
F33C
F33C
3CF0
3CF0
ENDCHAR
STARTCHAR 0078
ENCODING 120
SWIDTH 765 0
DWIDTH 17 0
BBX 14 10 2 0
BITMAP
F03C
F03C
3CF0
3FF0
0FC0
0FC0
3FF0
3CF0
F03C
F03C
ENDCHAR
STARTCHAR 0079
ENCODING 121
SWIDTH 765 0
DWIDTH 17 0
BBX 14 16 2 -6
BITMAP
F03C
F03C
F03C
F03C
F03C
F03C
F03C
F03C
3FFC
3FFC
003C
003C
003C
003C
3FF0
3FF0
ENDCHAR
STARTCHAR 007A
ENCODING 122
SWIDTH 765 0
DWIDTH 17 0
BBX 14 10 2 0
BITMAP
FFFC
FFFC
03F0
03F0
0FC0
0FC0
3F00
3F00
FFFC
FFFC
ENDCHAR
STARTCHAR 007B
ENCODING 123
SWIDTH 495 0
DWIDTH 11 0
BBX 8 16 2 0
BITMAP
0F
0F
3C
3C
3C
3C
3C
F0
F0
3C
3C
3C
3C
3C
0F
0F
ENDCHAR
STARTCHAR 007C
ENCODING 124
SWIDTH 315 0
DWIDTH 7 0
BBX 4 20 2 -4
BITMAP
F0
F0
F0
F0
F0
F0
F0
F0
F0
F0
F0
F0
F0
F0
F0
F0
F0
F0
F0
F0
ENDCHAR
STARTCHAR 007D
ENCODING 125
SWIDTH 495 0
DWIDTH 11 0
BBX 8 16 2 0
BITMAP
F0
F0
3C
3C
3C
3C
3C
0F
0F
3C
3C
3C
3C
3C
F0
F0
ENDCHAR
STARTCHAR 007E
ENCODING 126
SWIDTH 675 0
DWIDTH 15 0
BBX 12 6 2 6
BITMAP
3C00
3C00
CF30
CF30
03C0
03C0
ENDCHAR
STARTCHAR 00A1
ENCODING 161
SWIDTH 315 0
DWIDTH 7 0
BBX 4 16 2 0
BITMAP
F0
F0
F0
F0
00
00
F0
F0
F0
F0
F0
F0
F0
F0
F0
F0
ENDCHAR
STARTCHAR 00A2
ENCODING 162
SWIDTH 765 0
DWIDTH 17 0
BBX 14 14 2 -2
BITMAP
0300
0300
3FF0
3FF0
F33C
F33C
F300
F300
F33C
F33C
3FF0
3FF0
0300
0300
ENDCHAR
STARTCHAR 00A3
ENCODING 163
SWIDTH 765 0
DWIDTH 17 0
BBX 14 16 2 0
BITMAP
0FF0
0FF0
3C3C
3C3C
3C00
3C00
FFF0
FFF0
3C00
3C00
3C00
3C00
3C00
3C00
FFFC
FFFC
ENDCHAR
STARTCHAR 00A4
ENCODING 164
SWIDTH 720 0
DWIDTH 16 0
BBX 13 10 2 3
BITMAP
CF98
CF98
3060
3060
3060
3060
3060
3060
CF98
CF98
ENDCHAR
STARTCHAR 00A5
ENCODING 165
SWIDTH 765 0
DWIDTH 17 0
BBX 14 16 2 0
BITMAP
F03C
F03C
F03C
F03C
F03C
F03C
3CF0
3CF0
0FC0
FFFC
FFFC
0780
FFFC
FFFC
0780
0780
ENDCHAR
STARTCHAR 00A6
ENCODING 166
SWIDTH 270 0
DWIDTH 6 0
BBX 3 26 2 -6
BITMAP
E0
E0
E0
E0
E0
E0
E0
E0
E0
E0
E0
00
00
00
00
E0
E0
E0
E0
E0
E0
E0
E0
E0
E0
E0
ENDCHAR
STARTCHAR 00A7
ENCODING 167
SWIDTH 765 0
DWIDTH 17 0
BBX 14 16 2 0
BITMAP
3FF0
3FF0
F03C
F03C
F000
FFC0
FFC0
3030
3030
0FF0
0FFC
003C
F03C
F03C
3FF0
3FF0
ENDCHAR
STARTCHAR 00A8
ENCODING 168
SWIDTH 585 0
DWIDTH 13 0
BBX 10 4 2 12
BITMAP
F3C0
F3C0
F3C0
F3C0
ENDCHAR
STARTCHAR 00A9
ENCODING 169
SWIDTH 945 0
DWIDTH 21 0
BBX 18 16 2 0
BITMAP
3FFF00
3FFF00
F003C0
F003C0
F1FBC0
F1FBC0
F783C0
F783C0
F783C0
F783C0
F1FBC0
F1FBC0
F003C0
F003C0
3FFF00
3FFF00
ENDCHAR
STARTCHAR 00AA
ENCODING 170
SWIDTH 495 0
DWIDTH 11 0
BBX 8 11 2 5
BITMAP
3C
3C
03
03
3F
3F
C3
C3
C3
3F
3F
ENDCHAR
STARTCHAR 00AB
ENCODING 171
SWIDTH 945 0
DWIDTH 21 0
BBX 18 14 2 0
BITMAP
03C3C0
03C3C0
0F0F00
0F0F00
3C3C00
3C3C00
F0F000
F0F000
3C3C00
3C3C00
0F0F00
0F0F00
03C3C0
03C3C0
ENDCHAR
STARTCHAR 00AE
ENCODING 174
SWIDTH 675 0
DWIDTH 15 0
BBX 12 12 2 4
BITMAP
3FC0
3FC0
C030
DFB0
DFB0
D9B0
DFB0
DF30
DBB0
C030
3FC0
3FC0
ENDCHAR
STARTCHAR 00B1
ENCODING 177
SWIDTH 675 0
DWIDTH 15 0
BBX 12 14 2 1
BITMAP
0F00
0F00
0F00
0F00
FFF0
FFF0
0F00
0F00
0F00
0F00
0000
0000
FFF0
FFF0
ENDCHAR
STARTCHAR 00B5
ENCODING 181
SWIDTH 765 0
DWIDTH 17 0
BBX 15 16 1 -6
BITMAP
F00E
F00E
F00E
F00E
F00E
F00E
FC7E
FC7E
F3CE
F3CE
F000
F000
F000
F000
F000
F000
ENDCHAR
STARTCHAR 00B6
ENCODING 182
SWIDTH 765 0
DWIDTH 17 0
BBX 14 16 2 0
BITMAP
3FFC
3FFC
FFCC
FFCC
FFCC
FFCC
3FCC
3FCC
00CC
00CC
00CC
00CC
00CC
00CC
00CC
00FC
ENDCHAR
STARTCHAR 00BB
ENCODING 187
SWIDTH 945 0
DWIDTH 21 0
BBX 18 14 2 0
BITMAP
F0F000
F0F000
3C3C00
3C3C00
0F0F00
0F0F00
03C3C0
03C3C0
0F0F00
0F0F00
3C3C00
3C3C00
F0F000
F0F000
ENDCHAR
STARTCHAR 00BF
ENCODING 191
SWIDTH 765 0
DWIDTH 17 0
BBX 14 16 2 0
BITMAP
03C0
03C0
03C0
03C0
0000
0000
03C0
03C0
3F00
3F00
F000
F000
F03C
F03C
3FF0
3FF0
ENDCHAR
STARTCHAR 00C0
ENCODING 192
SWIDTH 765 0
DWIDTH 17 0
BBX 14 22 2 0
BITMAP
1E00
1E00
0780
0780
0000
0000
0FC0
0FC0
3CF0
3CF0
F03C
F03C
F03C
F03C
FFFC
FFFC
F03C
F03C
F03C
F03C
F03C
F03C
ENDCHAR
STARTCHAR 00C1
ENCODING 193
SWIDTH 765 0
DWIDTH 17 0
BBX 14 22 2 0
BITMAP
01E0
01E0
0780
0780
0000
0000
0FC0
0FC0
3CF0
3CF0
F03C
F03C
F03C
F03C
FFFC
FFFC
F03C
F03C
F03C
F03C
F03C
F03C
ENDCHAR
STARTCHAR 00C2
ENCODING 194
SWIDTH 765 0
DWIDTH 17 0
BBX 14 22 2 0
BITMAP
0FC0
0FC0
3CF0
3CF0
0000
0000
0FC0
0FC0
3CF0
3CF0
F03C
F03C
F03C
F03C
FFFC
FFFC
F03C
F03C
F03C
F03C
F03C
F03C
ENDCHAR
STARTCHAR 00C3
ENCODING 195
SWIDTH 765 0
DWIDTH 17 0
BBX 14 22 2 0
BITMAP
0660
0660
1980
1980
0000
0000
0FC0
0FC0
3CF0
3CF0
F03C
F03C
F03C
F03C
FFFC
FFFC
F03C
F03C
F03C
F03C
F03C
F03C
ENDCHAR
STARTCHAR 00C4
ENCODING 196
SWIDTH 765 0
DWIDTH 17 0
BBX 14 22 2 0
BITMAP
3CF0
3CF0
3CF0
3CF0
0000
0000
0FC0
0FC0
3CF0
3CF0
F03C
F03C
F03C
F03C
FFFC
FFFC
F03C
F03C
F03C
F03C
F03C
F03C
ENDCHAR
STARTCHAR 00C5
ENCODING 197
SWIDTH 765 0
DWIDTH 17 0
BBX 14 22 2 0
BITMAP
0300
0300
0CC0
0CC0
0300
0300
0FC0
0FC0
3CF0
3CF0
F03C
F03C
F03C
F03C
FFFC
FFFC
F03C
F03C
F03C
F03C
F03C
F03C
ENDCHAR
STARTCHAR 00C6
ENCODING 198
SWIDTH 1035 0
DWIDTH 23 0
BBX 20 16 2 0
BITMAP
0FFFF0
0FFFF0
3CF000
3CF000
F0F000
F0F000
F0FFC0
F0FFC0
FFF000
FFF000
F0F000
F0F000
F0F000
F0F000
F0FFF0
F0FFF0
ENDCHAR
STARTCHAR 00C7
ENCODING 199
SWIDTH 765 0
DWIDTH 17 0
BBX 14 20 2 -4
BITMAP
0FF0
0FF0
3C3C
3C3C
F000
F000
F000
F000
F000
F000
F000
F000
3C3C
3C3C
0FF0
0FF0
00F0
00F0
0FC0
0FC0
ENDCHAR
STARTCHAR 00C8
ENCODING 200
SWIDTH 765 0
DWIDTH 17 0
BBX 14 22 2 0
BITMAP
1E00
1E00
0780
0780
0000
0000
FFFC
FFFC
F000
F000
F000
F000
FFC0
FFC0
F000
F000
F000
F000
F000
F000
FFFC
FFFC
ENDCHAR
STARTCHAR 00C9
ENCODING 201
SWIDTH 765 0
DWIDTH 17 0
BBX 14 22 2 0
BITMAP
01E0
01E0
0780
0780
0000
0000
FFFC
FFFC
F000
F000
F000
F000
FFC0
FFC0
F000
F000
F000
F000
F000
F000
FFFC
FFFC
ENDCHAR
STARTCHAR 00CA
ENCODING 202
SWIDTH 765 0
DWIDTH 17 0
BBX 14 22 2 0
BITMAP
0FC0
0FC0
3CF0
3CF0
0000
0000
FFFC
FFFC
F000
F000
F000
F000
FFC0
FFC0
F000
F000
F000
F000
F000
F000
FFFC
FFFC
ENDCHAR
STARTCHAR 00CB
ENCODING 203
SWIDTH 765 0
DWIDTH 17 0
BBX 14 22 2 0
BITMAP
3CF0
3CF0
3CF0
3CF0
0000
0000
FFFC
FFFC
F000
F000
F000
F000
FFC0
FFC0
F000
F000
F000
F000
F000
F000
FFFC
FFFC
ENDCHAR
STARTCHAR 00CC
ENCODING 204
SWIDTH 675 0
DWIDTH 15 0
BBX 12 22 2 0
BITMAP
3C00
3C00
0F00
0F00
0000
0000
FFF0
FFF0
0F00
0F00
0F00
0F00
0F00
0F00
0F00
0F00
0F00
0F00
0F00
0F00
FFF0
FFF0
ENDCHAR
STARTCHAR 00CD
ENCODING 205
SWIDTH 675 0
DWIDTH 15 0
BBX 12 22 2 0
BITMAP
03C0
03C0
0F00
0F00
0000
0000
FFF0
FFF0
0F00
0F00
0F00
0F00
0F00
0F00
0F00
0F00
0F00
0F00
0F00
0F00
FFF0
FFF0
ENDCHAR
STARTCHAR 00CE
ENCODING 206
SWIDTH 675 0
DWIDTH 15 0
BBX 12 22 2 0
BITMAP
1F80
1F80
79E0
79E0
0000
0000
FFF0
FFF0
0F00
0F00
0F00
0F00
0F00
0F00
0F00
0F00
0F00
0F00
0F00
0F00
FFF0
FFF0
ENDCHAR
STARTCHAR 00CF
ENCODING 207
SWIDTH 675 0
DWIDTH 15 0
BBX 12 22 2 0
BITMAP
79E0
79E0
79E0
79E0
0000
0000
FFF0
FFF0
0F00
0F00
0F00
0F00
0F00
0F00
0F00
0F00
0F00
0F00
0F00
0F00
FFF0
FFF0
ENDCHAR
STARTCHAR 00D0
ENCODING 208
SWIDTH 855 0
DWIDTH 19 0
BBX 16 16 2 0
BITMAP
3FF0
3FF0
3C3C
3C3C
3C0F
3C0F
3C0F
FFCF
FFCF
3C0F
3C0F
3C0F
3C1C
3C1C
3FF0
3FF0
ENDCHAR
STARTCHAR 00D1
ENCODING 209
SWIDTH 765 0
DWIDTH 17 0
BBX 14 22 2 0
BITMAP
0660
0660
1980
1980
0000
0000
C03C
C03C
F03C
F03C
FC3C
FC3C
FF3C
FF3C
F3FC
F3FC
F0FC
F0FC
F03C
F03C
F00C
F00C
ENDCHAR
STARTCHAR 00D2
ENCODING 210
SWIDTH 765 0
DWIDTH 17 0
BBX 14 22 2 0
BITMAP
1E00
1E00
0780
0780
0000
0000
3FF0
3FF0
F03C
F03C
F03C
F03C
F03C
F03C
F03C
F03C
F03C
F03C
F03C
F03C
3FF0
3FF0
ENDCHAR
STARTCHAR 00D3
ENCODING 211
SWIDTH 765 0
DWIDTH 17 0
BBX 14 22 2 0
BITMAP
01E0
01E0
0780
0780
0000
0000
3FF0
3FF0
F03C
F03C
F03C
F03C
F03C
F03C
F03C
F03C
F03C
F03C
F03C
F03C
3FF0
3FF0
ENDCHAR
STARTCHAR 00D4
ENCODING 212
SWIDTH 765 0
DWIDTH 17 0
BBX 14 22 2 0
BITMAP
0FC0
0FC0
3CF0
3CF0
0000
0000
3FF0
3FF0
F03C
F03C
F03C
F03C
F03C
F03C
F03C
F03C
F03C
F03C
F03C
F03C
3FF0
3FF0
ENDCHAR
STARTCHAR 00D5
ENCODING 213
SWIDTH 765 0
DWIDTH 17 0
BBX 14 22 2 0
BITMAP
0660
0660
1980
1980
0000
0000
3FF0
3FF0
F03C
F03C
F03C
F03C
F03C
F03C
F03C
F03C
F03C
F03C
F03C
F03C
3FF0
3FF0
ENDCHAR
STARTCHAR 00D6
ENCODING 214
SWIDTH 765 0
DWIDTH 17 0
BBX 14 22 2 0
BITMAP
3CF0
3CF0
3CF0
3CF0
0000
0000
3FF0
3FF0
F03C
F03C
F03C
F03C
F03C
F03C
F03C
F03C
F03C
F03C
F03C
F03C
3FF0
3FF0
ENDCHAR
STARTCHAR 00D7
ENCODING 215
SWIDTH 585 0
DWIDTH 13 0
BBX 10 10 2 4
BITMAP
C0C0
C0C0
3300
3300
0C00
0C00
3300
3300
C0C0
C0C0
ENDCHAR
STARTCHAR 00D8
ENCODING 216
SWIDTH 765 0
DWIDTH 17 0
BBX 14 16 2 0
BITMAP
3FCC
3FCC
F030
F03C
F0FC
F0FC
F33C
F33C
F33C
F33C
FC3C
FC3C
303C
303C
CFC0
CFC0
ENDCHAR
STARTCHAR 00D9
ENCODING 217
SWIDTH 765 0
DWIDTH 17 0
BBX 14 22 2 0
BITMAP
1E00
1E00
0780
0780
0000
0000
F03C
F03C
F03C
F03C
F03C
F03C
F03C
F03C
F03C
F03C
F03C
F03C
F03C
F03C
3FF0
3FF0
ENDCHAR
STARTCHAR 00DA
ENCODING 218
SWIDTH 765 0
DWIDTH 17 0
BBX 14 22 2 0
BITMAP
01E0
01E0
0780
0780
0000
0000
F03C
F03C
F03C
F03C
F03C
F03C
F03C
F03C
F03C
F03C
F03C
F03C
F03C
F03C
3FF0
3FF0
ENDCHAR
STARTCHAR 00DB
ENCODING 219
SWIDTH 765 0
DWIDTH 17 0
BBX 14 22 2 0
BITMAP
0FC0
0FC0
3CF0
3CF0
0000
0000
F03C
F03C
F03C
F03C
F03C
F03C
F03C
F03C
F03C
F03C
F03C
F03C
F03C
F03C
3FF0
3FF0
ENDCHAR
STARTCHAR 00DC
ENCODING 220
SWIDTH 765 0
DWIDTH 17 0
BBX 14 22 2 0
BITMAP
3CF0
3CF0
3CF0
3CF0
0000
0000
F03C
F03C
F03C
F03C
F03C
F03C
F03C
F03C
F03C
F03C
F03C
F03C
F03C
F03C
3FF0
3FF0
ENDCHAR
STARTCHAR 00DD
ENCODING 221
SWIDTH 765 0
DWIDTH 17 0
BBX 14 22 2 0
BITMAP
01E0
01E0
0780
0780
0000
0000
F03C
F03C
F03C
F03C
F03C
F03C
3CF0
3CF0
0FC0
0FC0
0780
0780
0780
0780
0780
0780
ENDCHAR
STARTCHAR 00DE
ENCODING 222
SWIDTH 765 0
DWIDTH 17 0
BBX 14 16 2 0
BITMAP
F000
F000
FFF0
FFF0
F03C
F03C
F03C
F03C
F03C
F03C
F03C
F03C
FFF0
FFF0
F000
F000
ENDCHAR
STARTCHAR 00DF
ENCODING 223
SWIDTH 765 0
DWIDTH 17 0
BBX 14 16 2 0
BITMAP
FFC0
FFC0
F0F0
F0F0
F0F0
F0F0
F3C0
F3C0
F3C0
F3C0
F0F0
F0F0
F73C
F73C
F3F0
F3F0
ENDCHAR
STARTCHAR 00E0
ENCODING 224
SWIDTH 765 0
DWIDTH 17 0
BBX 14 16 2 0
BITMAP
1E00
1E00
0780
0780
0000
0000
3FF0
3FF0
003C
003C
3FFC
3FFC
F03C
F03C
3FFC
3FFC
ENDCHAR
STARTCHAR 00E1
ENCODING 225
SWIDTH 765 0
DWIDTH 17 0
BBX 14 16 2 0
BITMAP
01E0
01E0
0780
0780
0000
0000
3FF0
3FF0
003C
003C
3FFC
3FFC
F03C
F03C
3FFC
3FFC
ENDCHAR
STARTCHAR 00E2
ENCODING 226
SWIDTH 765 0
DWIDTH 17 0
BBX 14 16 2 0
BITMAP
0FC0
0FC0
3CF0
3CF0
0000
0000
3FF0
3FF0
003C
003C
3FFC
3FFC
F03C
F03C
3FFC
3FFC
ENDCHAR
STARTCHAR 00E3
ENCODING 227
SWIDTH 765 0
DWIDTH 17 0
BBX 14 16 2 0
BITMAP
0660
0660
1980
1980
0000
0000
3FF0
3FF0
003C
003C
3FFC
3FFC
F03C
F03C
3FFC
3FFC
ENDCHAR
STARTCHAR 00E4
ENCODING 228
SWIDTH 765 0
DWIDTH 17 0
BBX 14 16 2 0
BITMAP
3CF0
3CF0
3CF0
3CF0
0000
0000
3FF0
3FF0
003C
003C
3FFC
3FFC
F03C
F03C
3FFC
3FFC
ENDCHAR
STARTCHAR 00E5
ENCODING 229
SWIDTH 765 0
DWIDTH 17 0
BBX 14 16 2 0
BITMAP
0300
0300
0CC0
0CC0
0300
0300
3FF0
3FF0
003C
003C
3FFC
3FFC
F03C
F03C
3FFC
3FFC
ENDCHAR
STARTCHAR 00E6
ENCODING 230
SWIDTH 1305 0
DWIDTH 29 0
BBX 26 10 2 0
BITMAP
3FF3FF00
3FF3FF00
003F03C0
003F03C0
3FFFFFC0
3FFFFFC0
F03F0000
F03F0000
3FF3FF00
3FF3FF00
ENDCHAR
STARTCHAR 00E7
ENCODING 231
SWIDTH 765 0
DWIDTH 17 0
BBX 14 14 2 -4
BITMAP
3FF0
3FF0
F03C
F03C
F000
F000
F03C
F03C
3FF0
3FF0
00F0
00F0
0FC0
0FC0
ENDCHAR
STARTCHAR 00E8
ENCODING 232
SWIDTH 765 0
DWIDTH 17 0
BBX 14 16 2 0
BITMAP
1E00
1E00
0780
0780
0000
0000
3FF0
3FF0
F03C
F03C
FFFC
FFFC
F000
F000
3FF0
3FF0
ENDCHAR
STARTCHAR 00E9
ENCODING 233
SWIDTH 765 0
DWIDTH 17 0
BBX 14 16 2 0
BITMAP
01E0
01E0
0780
0780
0000
0000
3FF0
3FF0
F03C
F03C
FFFC
FFFC
F000
F000
3FF0
3FF0
ENDCHAR
STARTCHAR 00EA
ENCODING 234
SWIDTH 765 0
DWIDTH 17 0
BBX 14 16 2 0
BITMAP
0FC0
0FC0
3CF0
3CF0
0000
0000
3FF0
3FF0
F03C
F03C
FFFC
FFFC
F000
F000
3FF0
3FF0
ENDCHAR
STARTCHAR 00EB
ENCODING 235
SWIDTH 765 0
DWIDTH 17 0
BBX 14 16 2 0
BITMAP
3CF0
3CF0
3CF0
3CF0
0000
0000
3FF0
3FF0
F03C
F03C
FFFC
FFFC
F000
F000
3FF0
3FF0
ENDCHAR
STARTCHAR 00EC
ENCODING 236
SWIDTH 315 0
DWIDTH 7 0
BBX 6 16 0 0
BITMAP
F0
F0
3C
3C
00
00
3C
3C
3C
3C
3C
3C
3C
3C
3C
3C
ENDCHAR
STARTCHAR 00ED
ENCODING 237
SWIDTH 405 0
DWIDTH 9 0
BBX 6 16 2 0
BITMAP
3C
3C
F0
F0
00
00
F0
F0
F0
F0
F0
F0
F0
F0
F0
F0
ENDCHAR
STARTCHAR 00EE
ENCODING 238
SWIDTH 450 0
DWIDTH 10 0
BBX 10 16 -1 0
BITMAP
3F00
3F00
F3C0
F3C0
0000
0000
1E00
1E00
1E00
1E00
1E00
1E00
1E00
1E00
1E00
1E00
ENDCHAR
STARTCHAR 00EF
ENCODING 239
SWIDTH 450 0
DWIDTH 10 0
BBX 10 16 -1 0
BITMAP
F3C0
F3C0
F3C0
F3C0
0000
0000
1E00
1E00
1E00
1E00
1E00
1E00
1E00
1E00
1E00
1E00
ENDCHAR
STARTCHAR 00F0
ENCODING 240
SWIDTH 855 0
DWIDTH 19 0
BBX 16 16 2 0
BITMAP
003C
003C
03FF
03FF
003C
003C
3FFC
3FFC
F03C
F03C
F03C
F03C
F03C
F03C
3FF0
3FF0
ENDCHAR
STARTCHAR 00F1
ENCODING 241
SWIDTH 765 0
DWIDTH 17 0
BBX 14 16 2 0
BITMAP
0660
0660
1980
1980
0000
0000
FFF0
FFF0
F03C
F03C
F03C
F03C
F03C
F03C
F03C
F03C
ENDCHAR
STARTCHAR 00F2
ENCODING 242
SWIDTH 765 0
DWIDTH 17 0
BBX 14 16 2 0
BITMAP
1E00
1E00
0780
0780
0000
0000
3FF0
3FF0
F03C
F03C
F03C
F03C
F03C
F03C
3FF0
3FF0
ENDCHAR
STARTCHAR 00F3
ENCODING 243
SWIDTH 765 0
DWIDTH 17 0
BBX 14 16 2 0
BITMAP
01E0
01E0
0780
0780
0000
0000
3FF0
3FF0
F03C
F03C
F03C
F03C
F03C
F03C
3FF0
3FF0
ENDCHAR
STARTCHAR 00F4
ENCODING 244
SWIDTH 765 0
DWIDTH 17 0
BBX 14 16 2 0
BITMAP
0FC0
0FC0
3CF0
3CF0
0000
0000
3FF0
3FF0
F03C
F03C
F03C
F03C
F03C
F03C
3FF0
3FF0
ENDCHAR
STARTCHAR 00F5
ENCODING 245
SWIDTH 765 0
DWIDTH 17 0
BBX 14 16 2 0
BITMAP
0660
0660
1980
1980
0000
0000
3FF0
3FF0
F03C
F03C
F03C
F03C
F03C
F03C
3FF0
3FF0
ENDCHAR
STARTCHAR 00F6
ENCODING 246
SWIDTH 765 0
DWIDTH 17 0
BBX 14 16 2 0
BITMAP
3CF0
3CF0
3CF0
3CF0
0000
0000
3FF0
3FF0
F03C
F03C
F03C
F03C
F03C
F03C
3FF0
3FF0
ENDCHAR
STARTCHAR 00F7
ENCODING 247
SWIDTH 675 0
DWIDTH 15 0
BBX 12 10 2 2
BITMAP
0F00
0F00
0000
0000
FFF0
FFF0
0000
0000
0F00
0F00
ENDCHAR
STARTCHAR 00F8
ENCODING 248
SWIDTH 765 0
DWIDTH 17 0
BBX 14 10 2 0
BITMAP
3FDC
3FFC
F0F8
F1F0
F3BC
F73C
3E3C
7C3C
FFF0
CFF0
ENDCHAR
STARTCHAR 00F9
ENCODING 249
SWIDTH 765 0
DWIDTH 17 0
BBX 14 16 2 0
BITMAP
1E00
1E00
0780
0780
0000
0000
F03C
F03C
F03C
F03C
F03C
F03C
F03C
F03C
3FFC
3FFC
ENDCHAR
STARTCHAR 00FA
ENCODING 250
SWIDTH 765 0
DWIDTH 17 0
BBX 14 16 2 0
BITMAP
01E0
01E0
0780
0780
0000
0000
F03C
F03C
F03C
F03C
F03C
F03C
F03C
F03C
3FFC
3FFC
ENDCHAR
STARTCHAR 00FB
ENCODING 251
SWIDTH 765 0
DWIDTH 17 0
BBX 14 16 2 0
BITMAP
0FC0
0FC0
3CF0
3CF0
0000
0000
F03C
F03C
F03C
F03C
F03C
F03C
F03C
F03C
3FFC
3FFC
ENDCHAR
STARTCHAR 00FC
ENCODING 252
SWIDTH 765 0
DWIDTH 17 0
BBX 14 16 2 0
BITMAP
3CF0
3CF0
3CF0
3CF0
0000
0000
F03C
F03C
F03C
F03C
F03C
F03C
F03C
F03C
3FFC
3FFC
ENDCHAR
STARTCHAR 00FD
ENCODING 253
SWIDTH 765 0
DWIDTH 17 0
BBX 14 22 2 -6
BITMAP
01E0
01E0
0780
0780
0000
0000
F03C
F03C
F03C
F03C
F03C
F03C
F03C
F03C
3FFC
3FFC
003C
003C
003C
003C
3FF0
3FF0
ENDCHAR
STARTCHAR 00FE
ENCODING 254
SWIDTH 765 0
DWIDTH 17 0
BBX 14 22 2 -6
BITMAP
F000
F000
F000
F000
F000
F000
FFF0
FFF0
F03C
F03C
F03C
F03C
F03C
F03C
FFF0
FFF0
F000
F000
F000
F000
F000
F000
ENDCHAR
STARTCHAR 00FF
ENCODING 255
SWIDTH 765 0
DWIDTH 17 0
BBX 14 22 2 -6
BITMAP
3CF0
3CF0
3CF0
3CF0
0000
0000
F03C
F03C
F03C
F03C
F03C
F03C
F03C
F03C
3FFC
3FFC
003C
003C
003C
003C
3FF0
3FF0
ENDCHAR
STARTCHAR 0178
ENCODING 376
SWIDTH 765 0
DWIDTH 17 0
BBX 14 22 2 0
BITMAP
3CF0
3CF0
3CF0
3CF0
0000
0000
F03C
F03C
F03C
F03C
F03C
F03C
3CF0
3CF0
0FC0
0FC0
0780
0780
0780
0780
0780
0780
ENDCHAR
STARTCHAR 0391
ENCODING 913
SWIDTH 765 0
DWIDTH 17 0
BBX 14 16 2 0
BITMAP
0FC0
0FC0
3CF0
3CF0
F03C
F03C
F03C
F03C
FFFC
FFFC
F03C
F03C
F03C
F03C
F03C
F03C
ENDCHAR
STARTCHAR 0392
ENCODING 914
SWIDTH 765 0
DWIDTH 17 0
BBX 14 16 2 0
BITMAP
FFF0
FFF0
F03C
F03C
F03C
F03C
FFF0
FFF0
F03C
F03C
F03C
F03C
F03C
F03C
FFF0
FFF0
ENDCHAR
STARTCHAR 0393
ENCODING 915
SWIDTH 675 0
DWIDTH 15 0
BBX 12 16 2 0
BITMAP
FFF0
FFF0
F000
F000
F000
F000
F000
F000
F000
F000
F000
F000
F000
F000
F000
F000
ENDCHAR
STARTCHAR 0394
ENCODING 916
SWIDTH 1035 0
DWIDTH 23 0
BBX 20 16 2 0
BITMAP
00F000
00F000
03FC00
039C00
039C00
0F0F00
0F0F00
0F0F00
0F0F00
3C03C0
3C03C0
3C03C0
3C03C0
FFFFF0
FFFFF0
FFFFF0
ENDCHAR
STARTCHAR 0395
ENCODING 917
SWIDTH 765 0
DWIDTH 17 0
BBX 14 16 2 0
BITMAP
FFFC
FFFC
F000
F000
F000
F000
FFC0
FFC0
F000
F000
F000
F000
F000
F000
FFFC
FFFC
ENDCHAR
STARTCHAR 0396
ENCODING 918
SWIDTH 765 0
DWIDTH 17 0
BBX 14 16 2 0
BITMAP
FFFC
FFFC
003C
003C
00F0
00F0
03C0
03C0
0F00
0F00
3C00
3C00
F000
F000
FFFC
FFFC
ENDCHAR
STARTCHAR 0397
ENCODING 919
SWIDTH 765 0
DWIDTH 17 0
BBX 14 16 2 0
BITMAP
F03C
F03C
F03C
F03C
F03C
F03C
FFFC
FFFC
F03C
F03C
F03C
F03C
F03C
F03C
F03C
F03C
ENDCHAR
STARTCHAR 0398
ENCODING 920
SWIDTH 765 0
DWIDTH 17 0
BBX 14 16 2 0
BITMAP
3FF0
3FF0
F03C
F03C
F03C
F03C
F03C
F7BC
F7BC
F03C
F03C
F03C
F03C
F03C
3FF0
3FF0
ENDCHAR
STARTCHAR 0399
ENCODING 921
SWIDTH 675 0
DWIDTH 15 0
BBX 12 16 2 0
BITMAP
FFF0
FFF0
0F00
0F00
0F00
0F00
0F00
0F00
0F00
0F00
0F00
0F00
0F00
0F00
FFF0
FFF0
ENDCHAR
STARTCHAR 039A
ENCODING 922
SWIDTH 765 0
DWIDTH 17 0
BBX 14 16 2 0
BITMAP
F03C
F03C
F0F0
F0F0
F3C0
F3C0
FF00
FF00
F3C0
F3C0
F0F0
F0F0
F03C
F03C
F03C
F03C
ENDCHAR
STARTCHAR 039B
ENCODING 923
SWIDTH 1035 0
DWIDTH 23 0
BBX 20 16 2 0
BITMAP
00F000
00F000
03FC00
039C00
039C00
0F0F00
0F0F00
0F0F00
0F0F00
3C03C0
3C03C0
3C03C0
3C03C0
F000F0
F000F0
F000F0
ENDCHAR
STARTCHAR 039C
ENCODING 924
SWIDTH 765 0
DWIDTH 17 0
BBX 14 16 2 0
BITMAP
C00C
C00C
F03C
F03C
FCFC
FCFC
FFFC
FFFC
F33C
F33C
F03C
F03C
F03C
F03C
F03C
F03C
ENDCHAR
STARTCHAR 039D
ENCODING 925
SWIDTH 765 0
DWIDTH 17 0
BBX 14 16 2 0
BITMAP
C03C
C03C
F03C
F03C
FC3C
FC3C
FF3C
FF3C
F3FC
F3FC
F0FC
F0FC
F03C
F03C
F00C
F00C
ENDCHAR
STARTCHAR 039E
ENCODING 926
SWIDTH 765 0
DWIDTH 17 0
BBX 14 16 2 0
BITMAP
FFFC
FFFC
0000
0000
0000
0000
0000
1FE0
1FE0
0000
0000
0000
0000
0000
FFFC
FFFC
ENDCHAR
STARTCHAR 039F
ENCODING 927
SWIDTH 765 0
DWIDTH 17 0
BBX 14 16 2 0
BITMAP
3FF0
3FF0
F03C
F03C
F03C
F03C
F03C
F03C
F03C
F03C
F03C
F03C
F03C
F03C
3FF0
3FF0
ENDCHAR
STARTCHAR 03A0
ENCODING 928
SWIDTH 945 0
DWIDTH 21 0
BBX 18 16 2 0
BITMAP
FFFFC0
FFFFC0
3C0F00
3C0F00
3C0F00
3C0F00
3C0F00
3C0F00
3C0F00
3C0F00
3C0F00
3C0F00
3C0F00
3C0F00
3C0F00
3C0F00
ENDCHAR
STARTCHAR 03A1
ENCODING 929
SWIDTH 765 0
DWIDTH 17 0
BBX 14 16 2 0
BITMAP
FFF0
FFF0
F03C
F03C
F03C
F03C
FFF0
FFF0
F000
F000
F000
F000
F000
F000
F000
F000
ENDCHAR
STARTCHAR 03A3
ENCODING 931
SWIDTH 765 0
DWIDTH 17 0
BBX 14 16 2 0
BITMAP
FFFC
FFFC
F000
F000
F000
3C00
3C00
0F00
0F00
3C00
3C00
F000
F000
F000
FFFC
FFFC
ENDCHAR
STARTCHAR 03A4
ENCODING 932
SWIDTH 765 0
DWIDTH 17 0
BBX 14 16 2 0
BITMAP
FFFC
FFFC
0F80
0F80
0F80
0F80
0F80
0F80
0F80
0F80
0F80
0F80
0F80
0F80
0F80
0F80
ENDCHAR
STARTCHAR 03A5
ENCODING 933
SWIDTH 945 0
DWIDTH 21 0
BBX 18 16 2 0
BITMAP
F003C0
F003C0
3C0F00
3C0F00
3C0F00
3C0F00
0F3C00
0F3C00
03F000
03F000
01E000
01E000
01E000
01E000
01E000
01E000
ENDCHAR
STARTCHAR 03A6
ENCODING 934
SWIDTH 945 0
DWIDTH 21 0
BBX 18 16 2 0
BITMAP
01E000
01E000
3FFF00
3FFF00
F1E3C0
F1E3C0
F1E3C0
F1E3C0
F1E3C0
F1E3C0
F1E3C0
F1E3C0
3FFF00
3FFF00
01E000
01E000
ENDCHAR
STARTCHAR 03A7
ENCODING 935
SWIDTH 765 0
DWIDTH 17 0
BBX 14 16 2 0
BITMAP
F03C
F03C
F03C
F03C
3CF0
3CF0
0FC0
0FC0
3CF0
3CF0
F03C
F03C
F03C
F03C
F03C
F03C
ENDCHAR
STARTCHAR 03A8
ENCODING 936
SWIDTH 1125 0
DWIDTH 25 0
BBX 22 16 2 0
BITMAP
F0783C
F0783C
3C78F0
3C78F0
0F7BC0
0F7BC0
03FF00
03FF00
00FC00
00FC00
007800
007800
007800
007800
007800
007800
ENDCHAR
STARTCHAR 03A9
ENCODING 937
SWIDTH 1125 0
DWIDTH 25 0
BBX 22 16 2 0
BITMAP
0FFFC0
0FFFC0
3C00F0
3C00F0
F0003C
F0003C
F0003C
F0003C
3C00F0
3C00F0
0F03C0
0F03C0
03CF00
03CF00
FFCFFC
FFCFFC
ENDCHAR
STARTCHAR 03B1
ENCODING 945
SWIDTH 765 0
DWIDTH 17 0
BBX 14 10 2 0
BITMAP
3F3C
3F3C
F3F0
F3F0
F0F0
F0F0
F3F0
F3F0
3F3C
3F3C
ENDCHAR
STARTCHAR 03B2
ENCODING 946
SWIDTH 765 0
DWIDTH 17 0
BBX 14 22 2 -6
BITMAP
0FF0
0FF0
3C3C
3C3C
F03C
F03C
F03C
F3F0
F3F0
F03C
F03C
F03C
FCF0
FCF0
F3C0
F3C0
F000
F000
F000
F000
F000
F000
ENDCHAR
STARTCHAR 0401
ENCODING 1025
SWIDTH 765 0
DWIDTH 17 0
BBX 14 22 2 0
BITMAP
3CF0
3CF0
3CF0
3CF0
0000
0000
FFFC
FFFC
F000
F000
F000
F000
FFC0
FFC0
F000
F000
F000
F000
F000
F000
FFFC
FFFC
ENDCHAR
STARTCHAR 0404
ENCODING 1028
SWIDTH 765 0
DWIDTH 17 0
BBX 14 16 2 0
BITMAP
0FF0
0FF0
3C3C
3C3C
F000
F000
F000
FFC0
FFC0
F000
F000
F000
3C3C
3C3C
0FF0
0FF0
ENDCHAR
STARTCHAR 0406
ENCODING 1030
SWIDTH 675 0
DWIDTH 15 0
BBX 12 16 2 0
BITMAP
FFF0
FFF0
0F00
0F00
0F00
0F00
0F00
0F00
0F00
0F00
0F00
0F00
0F00
0F00
FFF0
FFF0
ENDCHAR
STARTCHAR 0407
ENCODING 1031
SWIDTH 720 0
DWIDTH 16 0
BBX 13 22 2 0
BITMAP
79E0
79E0
79E0
79E0
0000
0000
FFF0
FFF0
0F80
0F80
0F80
0F80
0F80
0F80
0F80
0F80
0F80
0F80
0F80
0F80
FFF8
FFF8
ENDCHAR
STARTCHAR 0409
ENCODING 1033
SWIDTH 1170 0
DWIDTH 26 0
BBX 23 16 2 0
BITMAP
0FFC00
0FFC00
3C3C00
3C3C00
3C3C00
3C3C00
3C3FF8
3C3FF8
3C3C1E
3C3C1E
3C3C1E
3C3C1E
3C3C1E
3C3C1E
F03FF8
F03FF8
ENDCHAR
STARTCHAR 040A
ENCODING 1034
SWIDTH 1125 0
DWIDTH 25 0
BBX 22 16 2 0
BITMAP
F03C00
F03C00
F03C00
F03C00
F03C00
F03C00
FFFFF0
FFFFF0
F03C3C
F03C3C
F03C3C
F03C3C
F03C3C
F03C3C
F03FF0
F03FF0
ENDCHAR
STARTCHAR 0410
ENCODING 1040
SWIDTH 765 0
DWIDTH 17 0
BBX 14 16 2 0
BITMAP
0FC0
0FC0
3CF0
3CF0
F03C
F03C
F03C
FFFC
FFFC
F03C
F03C
F03C
F03C
F03C
F03C
F03C
ENDCHAR
STARTCHAR 0411
ENCODING 1041
SWIDTH 765 0
DWIDTH 17 0
BBX 14 16 2 0
BITMAP
FFF0
FFF0
F000
F000
F000
F000
FFF0
FFF0
F03C
F03C
F03C
F03C
F03C
F03C
FFF0
FFF0
ENDCHAR
STARTCHAR 0412
ENCODING 1042
SWIDTH 765 0
DWIDTH 17 0
BBX 14 16 2 0
BITMAP
FFF0
FFF0
F03C
F03C
F03C
F03C
FFF0
FFF0
F03C
F03C
F03C
F03C
F03C
F03C
FFF0
FFF0
ENDCHAR
STARTCHAR 0413
ENCODING 1043
SWIDTH 675 0
DWIDTH 15 0
BBX 12 16 2 0
BITMAP
FFF0
FFF0
F000
F000
F000
F000
F000
F000
F000
F000
F000
F000
F000
F000
F000
F000
ENDCHAR
STARTCHAR 0414
ENCODING 1044
SWIDTH 855 0
DWIDTH 19 0
BBX 16 19 2 -3
BITMAP
0FFC
0FFC
3C3C
3C3C
3C3C
3C3C
3C3C
3C3C
3C3C
3C3C
3C3C
3C3C
3C3C
3C3C
FFFF
FFFF
F00F
F00F
F00F
ENDCHAR
STARTCHAR 0415
ENCODING 1045
SWIDTH 765 0
DWIDTH 17 0
BBX 14 16 2 0
BITMAP
FFFC
FFFC
F000
F000
F000
F000
FFC0
FFC0
F000
F000
F000
F000
F000
F000
FFFC
FFFC
ENDCHAR
STARTCHAR 0416
ENCODING 1046
SWIDTH 855 0
DWIDTH 19 0
BBX 16 16 2 0
BITMAP
F3CF
F3CF
F3CF
F3CF
F3CF
F3CF
3FFC
3FFC
F3CF
F3CF
F3CF
F3CF
F3CF
F3CF
F3CF
F3CF
ENDCHAR
STARTCHAR 0417
ENCODING 1047
SWIDTH 765 0
DWIDTH 17 0
BBX 14 16 2 0
BITMAP
3FF0
3FF0
F03C
F03C
003C
003C
003C
07F0
07F0
003C
003C
003C
F03C
F03C
3FF0
3FF0
ENDCHAR
STARTCHAR 0418
ENCODING 1048
SWIDTH 765 0
DWIDTH 17 0
BBX 14 16 2 0
BITMAP
F00C
F00C
F03C
F03C
F0FC
F0FC
F3FC
F3FC
FF3C
FF3C
FC3C
FC3C
F03C
F03C
C03C
C03C
ENDCHAR
STARTCHAR 0419
ENCODING 1049
SWIDTH 765 0
DWIDTH 17 0
BBX 14 22 2 0
BITMAP
7878
7878
1FE0
1FE0
0000
0000
F00C
F00C
F03C
F03C
F0FC
F0FC
F3FC
F3FC
FF3C
FF3C
FC3C
FC3C
F03C
F03C
C03C
C03C
ENDCHAR
STARTCHAR 041A
ENCODING 1050
SWIDTH 765 0
DWIDTH 17 0
BBX 14 16 2 0
BITMAP
F03C
F03C
F0F0
F0F0
F3C0
F3C0
FF00
FF00
F3C0
F3C0
F0F0
F0F0
F03C
F03C
F03C
F03C
ENDCHAR
STARTCHAR 041B
ENCODING 1051
SWIDTH 765 0
DWIDTH 17 0
BBX 14 16 2 0
BITMAP
0FFC
0FFC
3C3C
3C3C
3C3C
3C3C
3C3C
3C3C
3C3C
3C3C
3C3C
3C3C
3C3C
3C3C
F03C
F03C
ENDCHAR
STARTCHAR 041C
ENCODING 1052
SWIDTH 765 0
DWIDTH 17 0
BBX 14 16 2 0
BITMAP
C00C
C00C
F03C
F03C
FCFC
FCFC
FFFC
FFFC
F33C
F33C
F03C
F03C
F03C
F03C
F03C
F03C
ENDCHAR
STARTCHAR 041D
ENCODING 1053
SWIDTH 765 0
DWIDTH 17 0
BBX 14 16 2 0
BITMAP
F03C
F03C
F03C
F03C
F03C
F03C
FFFC
FFFC
F03C
F03C
F03C
F03C
F03C
F03C
F03C
F03C
ENDCHAR
STARTCHAR 041E
ENCODING 1054
SWIDTH 765 0
DWIDTH 17 0
BBX 14 16 2 0
BITMAP
3FF0
3FF0
F03C
F03C
F03C
F03C
F03C
F03C
F03C
F03C
F03C
F03C
F03C
F03C
3FF0
3FF0
ENDCHAR
STARTCHAR 041F
ENCODING 1055
SWIDTH 765 0
DWIDTH 17 0
BBX 14 16 2 0
BITMAP
FFFC
FFFC
F03C
F03C
F03C
F03C
F03C
F03C
F03C
F03C
F03C
F03C
F03C
F03C
F03C
F03C
ENDCHAR
STARTCHAR 0420
ENCODING 1056
SWIDTH 765 0
DWIDTH 17 0
BBX 14 16 2 0
BITMAP
FFF0
FFF0
F03C
F03C
F03C
F03C
FFF0
FFF0
F000
F000
F000
F000
F000
F000
F000
F000
ENDCHAR
STARTCHAR 0421
ENCODING 1057
SWIDTH 765 0
DWIDTH 17 0
BBX 14 16 2 0
BITMAP
0FF0
0FF0
3C3C
3C3C
F000
F000
F000
F000
F000
F000
F000
F000
3C3C
3C3C
0FF0
0FF0
ENDCHAR
STARTCHAR 0422
ENCODING 1058
SWIDTH 765 0
DWIDTH 17 0
BBX 14 16 2 0
BITMAP
FFFC
FFFC
0780
0780
0780
0780
0780
0780
0780
0780
0780
0780
0780
0780
0780
0780
ENDCHAR
STARTCHAR 0423
ENCODING 1059
SWIDTH 765 0
DWIDTH 17 0
BBX 14 16 2 0
BITMAP
F03C
F03C
F03C
F03C
F03C
F03C
F03C
3FFC
3FFC
003C
003C
003C
F03C
F03C
3FF0
3FF0
ENDCHAR
STARTCHAR 0424
ENCODING 1060
SWIDTH 1035 0
DWIDTH 23 0
BBX 20 16 2 0
BITMAP
00F000
00F000
3FFFC0
3FFFC0
F0F0F0
F0F0F0
F0F0F0
F0F0F0
F0F0F0
F0F0F0
F0F0F0
F0F0F0
3FFFC0
3FFFC0
00F000
00F000
ENDCHAR
STARTCHAR 0425
ENCODING 1061
SWIDTH 765 0
DWIDTH 17 0
BBX 14 16 2 0
BITMAP
F03C
F03C
F03C
F03C
3CF0
3CF0
0FC0
0FC0
3CF0
3CF0
F03C
F03C
F03C
F03C
F03C
F03C
ENDCHAR
STARTCHAR 0426
ENCODING 1062
SWIDTH 855 0
DWIDTH 19 0
BBX 16 19 2 -3
BITMAP
F03C
F03C
F03C
F03C
F03C
F03C
F03C
F03C
F03C
F03C
F03C
F03C
F03C
F03C
FFFF
FFFF
000F
000F
000F
ENDCHAR
STARTCHAR 0427
ENCODING 1063
SWIDTH 765 0
DWIDTH 17 0
BBX 14 16 2 0
BITMAP
F03C
F03C
F03C
F03C
F03C
F03C
F03C
3FFC
3FFC
003C
003C
003C
003C
003C
003C
003C
ENDCHAR
STARTCHAR 0428
ENCODING 1064
SWIDTH 945 0
DWIDTH 21 0
BBX 18 16 2 0
BITMAP
F1E3C0
F1E3C0
F1E3C0
F1E3C0
F1E3C0
F1E3C0
F1E3C0
F1E3C0
F1E3C0
F1E3C0
F1E3C0
F1E3C0
F1E3C0
F1E3C0
FFFFC0
FFFFC0
ENDCHAR
STARTCHAR 0429
ENCODING 1065
SWIDTH 1035 0
DWIDTH 23 0
BBX 20 19 2 -3
BITMAP
F1E3C0
F1E3C0
F1E3C0
F1E3C0
F1E3C0
F1E3C0
F1E3C0
F1E3C0
F1E3C0
F1E3C0
F1E3C0
F1E3C0
F1E3C0
F1E3C0
FFFFF0
FFFFF0
0000F0
0000F0
0000F0
ENDCHAR
STARTCHAR 042A
ENCODING 1066
SWIDTH 900 0
DWIDTH 20 0
BBX 17 16 2 0
BITMAP
FE0000
FE0000
1E0000
1E0000
1E0000
1E0000
1FFE00
1FFE00
1E0780
1E0780
1E0780
1E0780
1E0780
1E0780
1FFE00
1FFE00
ENDCHAR
STARTCHAR 042B
ENCODING 1067
SWIDTH 1035 0
DWIDTH 23 0
BBX 20 16 2 0
BITMAP
F000F0
F000F0
F000F0
F000F0
F000F0
F000F0
FFF0F0
FFF0F0
F03CF0
F03CF0
F03CF0
F03CF0
F03CF0
F03CF0
FFF0F0
FFF0F0
ENDCHAR
STARTCHAR 042C
ENCODING 1068
SWIDTH 765 0
DWIDTH 17 0
BBX 14 16 2 0
BITMAP
F000
F000
F000
F000
F000
F000
FFF0
FFF0
F03C
F03C
F03C
F03C
F03C
F03C
FFF0
FFF0
ENDCHAR
STARTCHAR 042D
ENCODING 1069
SWIDTH 765 0
DWIDTH 17 0
BBX 14 16 2 0
BITMAP
3FC0
3FC0
F0F0
F0F0
003C
003C
003C
0FFC
0FFC
003C
003C
003C
F0F0
F0F0
3FC0
3FC0
ENDCHAR
STARTCHAR 042E
ENCODING 1070
SWIDTH 1080 0
DWIDTH 24 0
BBX 21 16 2 0
BITMAP
F87FE0
F87FE0
F9E078
F9E078
F9E078
F9E078
F9E078
FFE078
FFE078
F9E078
F9E078
F9E078
F9E078
F9E078
F87FE0
F87FE0
ENDCHAR
STARTCHAR 042F
ENCODING 1071
SWIDTH 765 0
DWIDTH 17 0
BBX 14 16 2 0
BITMAP
3FFC
3FFC
F03C
F03C
F03C
F03C
3FFC
3FFC
F03C
F03C
F03C
F03C
F03C
F03C
F03C
F03C
ENDCHAR
STARTCHAR 0430
ENCODING 1072
SWIDTH 765 0
DWIDTH 17 0
BBX 14 10 2 0
BITMAP
3FF0
3FF0
003C
003C
3FFC
3FFC
F03C
F03C
3FFC
3FFC
ENDCHAR
STARTCHAR 0431
ENCODING 1073
SWIDTH 765 0
DWIDTH 17 0
BBX 14 16 2 0
BITMAP
3FF0
3FF0
F000
F000
F000
F000
F3F0
F3F0
FF3C
FF3C
F03C
F03C
F03C
F03C
3FF0
3FF0
ENDCHAR
STARTCHAR 0432
ENCODING 1074
SWIDTH 765 0
DWIDTH 17 0
BBX 14 10 2 0
BITMAP
FFF0
FFF0
F03C
F03C
FFF0
FFF0
F03C
F03C
FFF0
FFF0
ENDCHAR
STARTCHAR 0433
ENCODING 1075
SWIDTH 585 0
DWIDTH 13 0
BBX 10 10 2 0
BITMAP
FFC0
FFC0
F000
F000
F000
F000
F000
F000
F000
F000
ENDCHAR
STARTCHAR 0434
ENCODING 1076
SWIDTH 855 0
DWIDTH 19 0
BBX 16 13 2 -3
BITMAP
0FFC
0FFC
3C3C
3C3C
3C3C
3C3C
3C3C
3C3C
FFFF
FFFF
F00F
F00F
F00F
ENDCHAR
STARTCHAR 0435
ENCODING 1077
SWIDTH 765 0
DWIDTH 17 0
BBX 14 10 2 0
BITMAP
3FF0
3FF0
F03C
F03C
FFFC
FFFC
F000
F000
3FF0
3FF0
ENDCHAR
STARTCHAR 0436
ENCODING 1078
SWIDTH 855 0
DWIDTH 19 0
BBX 16 10 2 0
BITMAP
F3CF
F3CF
F3CF
F3CF
3FFC
3FFC
F3CF
F3CF
F3CF
F3CF
ENDCHAR
STARTCHAR 0437
ENCODING 1079
SWIDTH 765 0
DWIDTH 17 0
BBX 14 10 2 0
BITMAP
3FF0
3FF0
F03C
F03C
03F0
03F0
F03C
F03C
3FF0
3FF0
ENDCHAR
STARTCHAR 0438
ENCODING 1080
SWIDTH 765 0
DWIDTH 17 0
BBX 14 10 2 0
BITMAP
F03C
F0FC
F0FC
F3FC
F3FC
FF3C
FF3C
FC3C
FC3C
F03C
ENDCHAR
STARTCHAR 0439
ENCODING 1081
SWIDTH 765 0
DWIDTH 17 0
BBX 14 16 2 0
BITMAP
7878
7878
1FE0
1FE0
0000
0000
F03C
F0FC
F0FC
F3FC
F3FC
FF3C
FF3C
FC3C
FC3C
F03C
ENDCHAR
STARTCHAR 043A
ENCODING 1082
SWIDTH 675 0
DWIDTH 15 0
BBX 12 10 2 0
BITMAP
F0F0
F0F0
F3C0
F3C0
FF00
FF00
F3C0
F3C0
F0F0
F0F0
ENDCHAR
STARTCHAR 043B
ENCODING 1083
SWIDTH 765 0
DWIDTH 17 0
BBX 14 10 2 0
BITMAP
0FFC
0FFC
3C3C
3C3C
3C3C
3C3C
3C3C
3C3C
F03C
F03C
ENDCHAR
STARTCHAR 043C
ENCODING 1084
SWIDTH 765 0
DWIDTH 17 0
BBX 14 10 2 0
BITMAP
F03C
F03C
FCFC
FCFC
FFFC
FFFC
F33C
F33C
F03C
F03C
ENDCHAR
STARTCHAR 043D
ENCODING 1085
SWIDTH 765 0
DWIDTH 17 0
BBX 14 10 2 0
BITMAP
F03C
F03C
F03C
F03C
FFFC
FFFC
F03C
F03C
F03C
F03C
ENDCHAR
STARTCHAR 043E
ENCODING 1086
SWIDTH 765 0
DWIDTH 17 0
BBX 14 10 2 0
BITMAP
3FF0
3FF0
F03C
F03C
F03C
F03C
F03C
F03C
3FF0
3FF0
ENDCHAR
STARTCHAR 043F
ENCODING 1087
SWIDTH 765 0
DWIDTH 17 0
BBX 14 10 2 0
BITMAP
FFFC
FFFC
F03C
F03C
F03C
F03C
F03C
F03C
F03C
F03C
ENDCHAR
STARTCHAR 0440
ENCODING 1088
SWIDTH 765 0
DWIDTH 17 0
BBX 14 16 2 -6
BITMAP
FFF0
FFF0
F03C
F03C
F03C
F03C
F03C
F03C
FFF0
FFF0
F000
F000
F000
F000
F000
F000
ENDCHAR
STARTCHAR 0441
ENCODING 1089
SWIDTH 765 0
DWIDTH 17 0
BBX 14 10 2 0
BITMAP
3FF0
3FF0
F03C
F03C
F000
F000
F03C
F03C
3FF0
3FF0
ENDCHAR
STARTCHAR 0442
ENCODING 1090
SWIDTH 675 0
DWIDTH 15 0
BBX 12 10 2 0
BITMAP
FFF0
FFF0
0F00
0F00
0F00
0F00
0F00
0F00
0F00
0F00
ENDCHAR
STARTCHAR 0443
ENCODING 1091
SWIDTH 765 0
DWIDTH 17 0
BBX 14 16 2 -6
BITMAP
F03C
F03C
F03C
F03C
F03C
F03C
F03C
F03C
3FFC
3FFC
003C
003C
003C
003C
3FF0
3FF0
ENDCHAR
STARTCHAR 0444
ENCODING 1092
SWIDTH 945 0
DWIDTH 21 0
BBX 18 22 2 -6
BITMAP
01E000
01E000
01E000
01E000
01E000
01E000
3FFF00
3FFF00
F1E3C0
F1E3C0
F1E3C0
F1E3C0
F1E3C0
F1E3C0
3FFF00
3FFF00
01E000
01E000
01E000
01E000
01E000
01E000
ENDCHAR
STARTCHAR 0445
ENCODING 1093
SWIDTH 765 0
DWIDTH 17 0
BBX 14 10 2 0
BITMAP
F03C
F03C
3CF0
3FF0
0FC0
0FC0
3FF0
3CF0
F03C
F03C
ENDCHAR
STARTCHAR 0446
ENCODING 1094
SWIDTH 855 0
DWIDTH 19 0
BBX 16 13 2 -3
BITMAP
F03C
F03C
F03C
F03C
F03C
F03C
F03C
F03C
FFFF
FFFF
000F
000F
000F
ENDCHAR
STARTCHAR 0447
ENCODING 1095
SWIDTH 765 0
DWIDTH 17 0
BBX 14 10 2 0
BITMAP
F03C
F03C
F03C
F03C
F03C
3FFC
3FFC
003C
003C
003C
ENDCHAR
STARTCHAR 0448
ENCODING 1096
SWIDTH 855 0
DWIDTH 19 0
BBX 16 10 2 0
BITMAP
F3CF
F3CF
F3CF
F3CF
F3CF
F3CF
F3CF
F3CF
FFFF
FFFF
ENDCHAR
STARTCHAR 0449
ENCODING 1097
SWIDTH 945 0
DWIDTH 21 0
BBX 18 13 2 -3
BITMAP
F3CF00
F3CF00
F3CF00
F3CF00
F3CF00
F3CF00
F3CF00
F3CF00
FFFFC0
FFFFC0
0003C0
0003C0
0003C0
ENDCHAR
STARTCHAR 044A
ENCODING 1098
SWIDTH 900 0
DWIDTH 20 0
BBX 17 10 2 0
BITMAP
FE0000
FE0000
1E0000
1E0000
1FFE00
1FFE00
1E0780
1E0780
1FFE00
1FFE00
ENDCHAR
STARTCHAR 044B
ENCODING 1099
SWIDTH 945 0
DWIDTH 21 0
BBX 18 10 2 0
BITMAP
F003C0
F003C0
F003C0
F003C0
FFC3C0
FFC3C0
F0F3C0
F0F3C0
FFC3C0
FFC3C0
ENDCHAR
STARTCHAR 044C
ENCODING 1100
SWIDTH 765 0
DWIDTH 17 0
BBX 14 10 2 0
BITMAP
F000
F000
F000
F000
FFF0
FFF0
F03C
F03C
FFF0
FFF0
ENDCHAR
STARTCHAR 044D
ENCODING 1101
SWIDTH 765 0
DWIDTH 17 0
BBX 14 10 2 0
BITMAP
3FF0
3FF0
F03C
F03C
03FC
03FC
F03C
F03C
3FF0
3FF0
ENDCHAR
STARTCHAR 044E
ENCODING 1102
SWIDTH 1035 0
DWIDTH 23 0
BBX 20 10 2 0
BITMAP
F0FFC0
F0FFC0
F3C0F0
F3C0F0
FFC0F0
FFC0F0
F3C0F0
F3C0F0
F0FFC0
F0FFC0
ENDCHAR
STARTCHAR 044F
ENCODING 1103
SWIDTH 765 0
DWIDTH 17 0
BBX 14 10 2 0
BITMAP
3FFC
3FFC
F03C
F03C
3FFC
3FFC
F03C
F03C
F03C
F03C
ENDCHAR
STARTCHAR 0450
ENCODING 1104
SWIDTH 765 0
DWIDTH 17 0
BBX 14 16 2 0
BITMAP
1E00
1E00
0780
0780
0000
0000
3FF0
3FF0
F03C
F03C
FFFC
FFFC
F000
F000
3FF0
3FF0
ENDCHAR
STARTCHAR 0451
ENCODING 1105
SWIDTH 765 0
DWIDTH 17 0
BBX 14 16 2 0
BITMAP
3CF0
3CF0
3CF0
3CF0
0000
0000
3FF0
3FF0
F03C
F03C
FFFC
FFFC
F000
F000
3FF0
3FF0
ENDCHAR
STARTCHAR 0453
ENCODING 1107
SWIDTH 585 0
DWIDTH 13 0
BBX 10 16 2 0
BITMAP
0780
0780
1E00
1E00
0000
0000
FFC0
FFC0
F000
F000
F000
F000
F000
F000
F000
F000
ENDCHAR
STARTCHAR 0454
ENCODING 1108
SWIDTH 765 0
DWIDTH 17 0
BBX 14 10 2 0
BITMAP
3FF0
3FF0
F03C
F03C
FF00
FF00
F03C
F03C
3FF0
3FF0
ENDCHAR
STARTCHAR 0456
ENCODING 1110
SWIDTH 315 0
DWIDTH 7 0
BBX 4 16 2 0
BITMAP
F0
F0
F0
F0
00
00
F0
F0
F0
F0
F0
F0
F0
F0
F0
F0
ENDCHAR
STARTCHAR 0457
ENCODING 1111
SWIDTH 450 0
DWIDTH 10 0
BBX 10 16 -1 0
BITMAP
F3C0
F3C0
F3C0
F3C0
0000
0000
1E00
1E00
1E00
1E00
1E00
1E00
1E00
1E00
1E00
1E00
ENDCHAR
STARTCHAR 0459
ENCODING 1113
SWIDTH 1125 0
DWIDTH 25 0
BBX 22 10 2 0
BITMAP
3FFC00
3FFC00
3C3C00
3C3C00
3C3FF0
3C3FF0
3C3C3C
3C3C3C
F03FF0
F03FF0
ENDCHAR
STARTCHAR 045A
ENCODING 1114
SWIDTH 1125 0
DWIDTH 25 0
BBX 22 10 2 0
BITMAP
F03C00
F03C00
F03C00
F03C00
FFFFF0
FFFFF0
F03C3C
F03C3C
F03FF0
F03FF0
ENDCHAR
STARTCHAR 045B
ENCODING 1115
SWIDTH 765 0
DWIDTH 17 0
BBX 16 16 0 0
BITMAP
3C00
3C00
FFC0
FFC0
3C00
3C00
3CFC
3CFC
3FCF
3FCF
3C0F
3C0F
3C0F
3C0F
3C0F
3C0F
ENDCHAR
STARTCHAR 045C
ENCODING 1116
SWIDTH 675 0
DWIDTH 15 0
BBX 12 16 2 0
BITMAP
03C0
03C0
0F00
0F00
0000
0000
F0F0
F0F0
F3C0
F3C0
FF00
FF00
F3C0
F3C0
F0F0
F0F0
ENDCHAR
STARTCHAR 045D
ENCODING 1117
SWIDTH 765 0
DWIDTH 17 0
BBX 14 16 2 0
BITMAP
1E00
1E00
0780
0780
0000
0000
F03C
F0FC
F0FC
F3FC
F3FC
FF3C
FF3C
FC3C
FC3C
F03C
ENDCHAR
STARTCHAR 045E
ENCODING 1118
SWIDTH 765 0
DWIDTH 17 0
BBX 14 22 2 -6
BITMAP
7878
7878
1FE0
1FE0
0000
0000
F03C
F03C
F03C
F03C
F03C
F03C
F03C
F03C
3FFC
3FFC
003C
003C
003C
003C
3FF0
3FF0
ENDCHAR
STARTCHAR 0490
ENCODING 1168
SWIDTH 675 0
DWIDTH 15 0
BBX 12 19 2 0
BITMAP
00F0
00F0
00F0
FFF0
FFF0
F000
F000
F000
F000
F000
F000
F000
F000
F000
F000
F000
F000
F000
F000
ENDCHAR
STARTCHAR 0491
ENCODING 1169
SWIDTH 585 0
DWIDTH 13 0
BBX 10 13 2 0
BITMAP
03C0
03C0
03C0
FFC0
FFC0
F000
F000
F000
F000
F000
F000
F000
F000
ENDCHAR
STARTCHAR 0492
ENCODING 1170
SWIDTH 675 0
DWIDTH 15 0
BBX 14 16 0 0
BITMAP
3FFC
3FFC
3C00
3C00
3C00
3C00
FFC0
FFC0
3C00
3C00
3C00
3C00
3C00
3C00
3C00
3C00
ENDCHAR
STARTCHAR 0493
ENCODING 1171
SWIDTH 585 0
DWIDTH 13 0
BBX 12 10 0 0
BITMAP
3FF0
3FF0
3C00
3C00
FFC0
FFC0
3C00
3C00
3C00
3C00
ENDCHAR
STARTCHAR 0496
ENCODING 1174
SWIDTH 945 0
DWIDTH 21 0
BBX 18 19 2 -3
BITMAP
F3CF00
F3CF00
F3CF00
F3CF00
F3CF00
F3CF00
F3CF00
3FFC00
3FFC00
F3CF00
F3CF00
F3CF00
F3CF00
F3CF00
F3CFC0
F3CFC0
0003C0
0003C0
0003C0
ENDCHAR
STARTCHAR 0497
ENCODING 1175
SWIDTH 945 0
DWIDTH 21 0
BBX 18 13 2 -3
BITMAP
F3CF00
F3CF00
F3CF00
F3CF00
3FFC00
3FFC00
F3CF00
F3CF00
F3CFC0
F3CFC0
0003C0
0003C0
0003C0
ENDCHAR
STARTCHAR 049A
ENCODING 1178
SWIDTH 855 0
DWIDTH 19 0
BBX 16 19 2 -3
BITMAP
F03C
F03C
F0F0
F0F0
F3C0
F3C0
FF00
FF00
F3C0
F3C0
F0F0
F0F0
F03C
F03C
F03F
F03F
000F
000F
000F
ENDCHAR
STARTCHAR 049B
ENCODING 1179
SWIDTH 810 0
DWIDTH 18 0
BBX 15 13 2 -3
BITMAP
F078
F078
F3C0
F3C0
FF00
FF00
F3C0
F3C0
F0FE
F0FE
001E
001E
001E
ENDCHAR
STARTCHAR 049C
ENCODING 1180
SWIDTH 855 0
DWIDTH 19 0
BBX 16 16 2 0
BITMAP
F00F
F00F
F63C
F63C
F6F0
F6F0
FFC0
FFC0
F6F0
F6F0
F63C
F63C
F00F
F00F
F00F
F00F
ENDCHAR
STARTCHAR 049D
ENCODING 1181
SWIDTH 765 0
DWIDTH 17 0
BBX 14 10 2 0
BITMAP
F03C
F03C
F6F0
F6F0
FFC0
FFC0
F6F0
F6F0
F03C
F03C
ENDCHAR
STARTCHAR 049E
ENCODING 1182
SWIDTH 765 0
DWIDTH 17 0
BBX 16 16 0 0
BITMAP
3C0F
3C0F
FF3C
FF3C
3CF0
3CF0
3FC0
3FC0
3CF0
3CF0
3C3C
3C3C
3C0F
3C0F
3C0F
3C0F
ENDCHAR
STARTCHAR 049F
ENCODING 1183
SWIDTH 720 0
DWIDTH 16 0
BBX 15 16 0 0
BITMAP
3C00
3C00
3C00
FF00
FF00
3C00
3C1E
3C1E
3CF0
3CF0
3FC0
3FC0
3CF0
3CF0
3C3C
3C3C
ENDCHAR
STARTCHAR 04A0
ENCODING 1184
SWIDTH 900 0
DWIDTH 20 0
BBX 17 16 2 0
BITMAP
FE0780
FE0780
1E1E00
1E1E00
1E7800
1E7800
1FE000
1FE000
1E7800
1E7800
1E1E00
1E1E00
1E0780
1E0780
1E0780
1E0780
ENDCHAR
STARTCHAR 04A1
ENCODING 1185
SWIDTH 855 0
DWIDTH 19 0
BBX 16 10 2 0
BITMAP
FE1F
FE1F
1E78
1E78
1FE0
1FE0
1E78
1E78
1E1F
1E1F
ENDCHAR
STARTCHAR 04A2
ENCODING 1186
SWIDTH 855 0
DWIDTH 19 0
BBX 16 19 2 -3
BITMAP
F03C
F03C
F03C
F03C
F03C
F03C
FFFC
FFFC
F03C
F03C
F03C
F03C
F03C
F03C
F03F
F03F
000F
000F
000F
ENDCHAR
STARTCHAR 04A3
ENCODING 1187
SWIDTH 855 0
DWIDTH 19 0
BBX 16 13 2 -3
BITMAP
F03C
F03C
F03C
F03C
FFFC
FFFC
F03C
F03C
F03F
F03F
000F
000F
000F
ENDCHAR
STARTCHAR 04A4
ENCODING 1188
SWIDTH 900 0
DWIDTH 20 0
BBX 17 16 2 0
BITMAP
F03F80
F03F80
F03C00
F03C00
F03C00
F03C00
FFFC00
FFFC00
F03C00
F03C00
F03C00
F03C00
F03C00
F03C00
F03C00
F03C00
ENDCHAR
STARTCHAR 04A5
ENCODING 1189
SWIDTH 945 0
DWIDTH 21 0
BBX 18 10 2 0
BITMAP
F03FC0
F03FC0
F03C00
F03C00
FFFC00
FFFC00
F03C00
F03C00
F03C00
F03C00
ENDCHAR
STARTCHAR 04AC
ENCODING 1196
SWIDTH 765 0
DWIDTH 17 0
BBX 14 19 2 -3
BITMAP
FFFC
FFFC
0780
0780
0780
0780
0780
0780
0780
0780
0780
0780
0780
0780
07F0
07F0
00F0
00F0
00F0
ENDCHAR
STARTCHAR 04AD
ENCODING 1197
SWIDTH 675 0
DWIDTH 15 0
BBX 12 13 2 -3
BITMAP
FFF0
FFF0
0F00
0F00
0F00
0F00
0F00
0F00
0FE0
0FE0
01E0
01E0
01E0
ENDCHAR
STARTCHAR 2018
ENCODING 8216
SWIDTH 405 0
DWIDTH 9 0
BBX 6 6 2 10
BITMAP
3C
3C
F0
F0
F0
F0
ENDCHAR
STARTCHAR 2019
ENCODING 8217
SWIDTH 315 0
DWIDTH 7 0
BBX 6 6 0 10
BITMAP
3C
3C
3C
3C
F0
F0
ENDCHAR
STARTCHAR 201C
ENCODING 8220
SWIDTH 675 0
DWIDTH 15 0
BBX 12 6 2 10
BITMAP
3CF0
3CF0
F3C0
F3C0
F3C0
F3C0
ENDCHAR
STARTCHAR 201D
ENCODING 8221
SWIDTH 585 0
DWIDTH 13 0
BBX 12 6 0 10
BITMAP
3CF0
3CF0
3CF0
3CF0
F3C0
F3C0
ENDCHAR
STARTCHAR 20AC
ENCODING 8364
SWIDTH 855 0
DWIDTH 19 0
BBX 17 16 1 0
BITMAP
01FE00
01FE00
078780
078780
1E0000
1E0000
7FF000
FFE000
1E0000
7FF000
FFE000
1E0000
0F8780
0F8780
03FE00
03FE00
ENDCHAR
STARTCHAR 2122
ENCODING 8482
SWIDTH 945 0
DWIDTH 21 0
BBX 18 8 2 8
BITMAP
FFC0C0
FFC0C0
18F3C0
18F3C0
18CCC0
18CCC0
18C0C0
18C0C0
ENDCHAR
STARTCHAR FB00
ENCODING 64256
SWIDTH 945 0
DWIDTH 21 0
BBX 18 16 2 0
BITMAP
0FCFC0
0FCFC0
3C3C00
3C3C00
3C3C00
3C3C00
FFFFC0
FFFFC0
3C3C00
3C3C00
3C3C00
3C3C00
3C3C00
3C3C00
3C3C00
3C3C00
ENDCHAR
STARTCHAR FB01
ENCODING 64257
SWIDTH 765 0
DWIDTH 17 0
BBX 14 16 2 0
BITMAP
0FC0
0FC0
3C00
3C00
3C00
3C00
FFFC
FFFC
3C3C
3C3C
3C3C
3C3C
3C3C
3C3C
3C3C
3C3C
ENDCHAR
STARTCHAR FB02
ENCODING 64258
SWIDTH 855 0
DWIDTH 19 0
BBX 16 16 2 0
BITMAP
0FFC
0FFC
3C3C
3C3C
3C3C
3C3C
FFFC
FFFC
3C3C
3C3C
3C3C
3C3C
3C3C
3C3C
3C0F
3C0F
ENDCHAR
STARTCHAR FB03
ENCODING 64259
SWIDTH 1125 0
DWIDTH 25 0
BBX 22 16 2 0
BITMAP
0FCFC0
0FCFC0
3C3C00
3C3C00
3C3C00
3C3C00
FFFFFC
FFFFFC
3C3C3C
3C3C3C
3C3C3C
3C3C3C
3C3C3C
3C3C3C
3C3C3C
3C3C3C
ENDCHAR
STARTCHAR FB04
ENCODING 64260
SWIDTH 1215 0
DWIDTH 27 0
BBX 24 16 2 0
BITMAP
0FCFFC
0FCFFC
3C3C3C
3C3C3C
3C3C3C
3C3C3C
FFFFFC
FFFFFC
3C3C3C
3C3C3C
3C3C3C
3C3C3C
3C3C3C
3C3C3C
3C3C0F
3C3C0F
ENDCHAR
ENDFONT
